<svg width="100" height="102" viewBox="0 0 100 102" fill="none" xmlns="http://www.w3.org/2000/svg">
<path d="M49.743 101.034C47.8581 100.891 45.6204 100.83 43.423 100.515C41.1102 100.204 38.8204 99.7388 36.5689 99.1212C34.2362 98.4459 31.9499 97.6168 29.7248 96.6391C27.9236 95.7918 26.1704 94.8443 24.4733 93.8009C23.2493 93.1201 22.0647 92.3695 20.9253 91.5527C19.6654 90.6269 18.4558 89.6096 17.2765 88.5924C16.0972 87.5751 15.059 86.5578 14.0409 85.5405C13.0229 84.5232 12.1258 83.3534 11.2085 82.2242C10.2913 81.095 9.39421 79.9251 8.5576 78.7349C8.0637 78.033 7.69076 77.2497 7.26741 76.5071C6.6324 75.388 5.97722 74.2792 5.35228 73.1602C4.32879 71.2719 3.49475 69.2851 2.86261 67.2294C2.60054 66.4156 2.28808 65.6221 2.05624 64.8083C1.7337 63.6384 1.43131 62.4686 1.17932 61.2885C0.927326 60.1085 0.645096 58.6436 0.473743 57.3109C0.302389 55.9783 0.241911 54.7474 0.141115 53.4758C0.080637 52.6213 0 51.7464 0 50.8919C0.0604778 49.0709 0.191513 47.2602 0.292309 45.4494C0.471423 42.8587 0.907018 40.2925 1.59258 37.7893C2.14805 35.3268 2.98347 32.9373 4.08225 30.6683C4.39472 30.0681 4.59631 29.3967 4.90878 28.7863C5.73531 27.1892 6.54168 25.5717 7.44885 24.0153C8.20482 22.7742 9.07167 21.5433 9.92844 20.3429C10.7852 19.1425 11.6017 18.1659 12.5088 17.1385C13.4147 16.0599 14.3877 15.0405 15.4218 14.0866C17.2765 12.4488 19.1513 10.8517 21.1672 9.34607C22.4808 8.34415 23.8692 7.44626 25.32 6.66045C27.2654 5.64317 29.2511 4.62588 31.2872 3.73067C32.8412 3.10337 34.4297 2.56671 36.0448 2.12337C37.5929 1.64672 39.164 1.24947 40.7519 0.933148C42.4629 0.621503 44.1889 0.400788 45.9228 0.271914C47.5737 0.104417 49.2335 0.0432559 50.8921 0.0888036C53.4025 0.192995 55.9057 0.430691 58.3913 0.800901C61.6713 1.27637 64.8785 2.16848 67.9367 3.45601C69.4688 4.13759 70.9606 4.81917 72.533 5.49057C73.1781 5.78558 73.793 6.14163 74.428 6.44682C74.9017 6.67062 75.2142 7.11823 75.7585 7.30134C76.3753 7.55523 76.9525 7.89788 77.472 8.31862C77.7341 8.5119 77.9055 8.82726 78.1574 9.04089C78.4094 9.25452 78.5203 9.04089 78.6513 9.14262C79.3408 9.52947 79.9778 10.0048 80.5463 10.5566C81.1035 11.1224 81.7184 11.627 82.3808 12.0622C84.4334 13.7132 86.2873 15.6013 87.9044 17.6878C87.9044 18.3388 88.6302 18.3185 88.9124 18.7051C89.1946 19.0916 89.5373 19.5291 89.8397 19.9462C91.7559 22.4801 93.4013 25.2115 94.7485 28.0946C95.4642 29.6815 96.2101 31.2583 96.8148 32.886C97.4736 34.6245 98.0289 36.4011 98.478 38.2064C98.9431 40.1348 99.3032 42.0875 99.5565 44.0557C99.8256 46.0045 99.9737 47.9683 100 49.9356C100 51.9702 99.7581 54.0862 99.6573 56.1512C99.51 58.1394 99.1725 60.1086 98.6493 62.0311C98.1454 64.0657 97.5003 66.1003 96.835 68.0534C96.4341 69.2833 95.956 70.4861 95.4037 71.6546C94.2939 74.0474 93.0138 76.3559 91.5734 78.562C90.8275 79.6708 90.0514 80.7593 89.2047 81.7969C87.5968 83.8501 85.8415 85.7814 83.9532 87.5751C82.3304 89.0501 80.6169 90.4235 78.9134 91.7459C77.8773 92.4852 76.8004 93.1645 75.6879 93.7805C74.4582 94.5129 73.2083 95.2047 71.9484 95.8761C69.6462 97.0608 67.2404 98.0279 64.7616 98.7652C61.4714 99.8386 58.0684 100.521 54.6215 100.8L49.743 101.034ZM54.4804 94.869C55.1658 95.7133 55.2565 95.7642 56.1536 95.3471C57.2017 94.8959 58.2128 94.3619 59.1775 93.75C59.9012 93.3386 60.5773 92.8473 61.1934 92.2851C62.5218 91.029 63.6899 89.6109 64.6709 88.0634C65.2265 87.1879 65.6989 86.2614 66.082 85.2964C66.6213 83.7784 66.9964 82.206 67.2009 80.6067C67.4861 78.3017 67.3252 75.9628 66.7271 73.7197C66.3497 72.5514 65.9124 71.4037 65.4168 70.2813C65.0942 69.5081 64.7011 68.7554 64.3383 67.9924C64.3031 67.9347 64.2589 67.8831 64.2072 67.8398C63.9452 67.616 63.6629 67.4024 63.4109 67.1582C62.3862 66.0357 61.2992 64.9726 60.1552 63.9741C58.1302 62.3961 55.776 61.3038 53.2708 60.7799C52.6564 60.6463 52.0332 60.5579 51.4061 60.5154C50.7106 60.5154 50.63 60.5764 50.6199 61.2987V61.4716C50.7409 63.8928 50.8517 66.3139 50.9828 68.735C50.9635 69.3076 51.0702 69.8774 51.2952 70.4034C51.7207 71.192 51.88 72.0991 51.7488 72.9873C51.7235 73.2987 51.7235 73.6117 51.7488 73.9232C51.8826 74.8999 51.814 75.8941 51.5472 76.8428C51.4162 77.2395 51.3859 77.6769 51.2751 78.094C51.1508 78.6714 50.9578 79.2316 50.7005 79.7624C50.4284 80.2303 50.63 81.0136 51.1743 81.0747C51.5096 81.101 51.8419 80.9953 52.1016 80.7796C52.6761 80.271 53.1801 79.681 53.674 79.152L55.0045 79.2435L55.2666 80.9017L54.7021 81.2883C54.4199 81.4714 54.1276 81.624 53.8555 81.8071C53.648 82.0009 53.4178 82.1683 53.17 82.3056C53.0786 82.3256 52.9921 82.3643 52.916 82.4194C52.8399 82.4744 52.7758 82.5447 52.7277 82.6257C52.6795 82.7067 52.6483 82.7968 52.636 82.8905C52.6236 82.9841 52.6305 83.0794 52.656 83.1702C52.7971 83.801 52.7568 84.5334 53.4724 84.9098C53.5531 84.9098 53.5934 85.0827 53.6438 85.1743C53.4019 85.7542 52.7467 86.1916 53.0289 86.8833C53.0289 86.9545 52.9281 87.0766 52.8677 87.1783C52.5475 87.8974 52.4834 88.706 52.6862 89.4672C52.7467 89.8436 53.1801 90.1997 53.4926 90.4845C53.8051 90.7694 54.0772 91.0745 53.9361 91.5018C53.8626 91.7067 53.8563 91.9299 53.918 92.1387C53.9797 92.3474 54.1062 92.5307 54.2788 92.6615C54.4904 92.899 54.6349 93.1896 54.6969 93.5028C54.759 93.816 54.7364 94.1404 54.6316 94.4417C54.5913 94.5638 54.5308 94.6961 54.4804 94.869ZM59.7319 39.9357C60.5786 39.01 61.4051 38.1352 62.1913 37.24C62.5441 36.8432 62.3123 36.4973 61.9595 36.2227C60.5973 34.9745 58.8091 34.3073 56.9701 34.361C56.5366 34.361 56.1133 34.4628 55.69 34.534C54.7456 34.7225 53.8744 35.18 53.1796 35.8524C52.4847 36.5249 51.9952 37.3841 51.769 38.3284C51.6681 38.8936 51.6681 39.4723 51.769 40.0375C51.9232 40.7599 52.2447 41.4352 52.7072 42.0081C53.1697 42.581 53.7601 43.0352 54.43 43.3335C55.2879 43.9817 56.2022 44.5503 57.1616 45.0323C57.3422 45.1255 57.5005 45.2575 57.6252 45.4189C58.0486 45.8665 57.9478 46.3548 57.3632 46.4362C56.7752 46.5173 56.1768 46.4687 55.6093 46.2938C54.907 45.9714 54.2327 45.5903 53.5934 45.1544L50.882 48.369C51.7936 49.2762 52.8911 49.9707 54.0974 50.4036C55.8137 50.9903 57.6607 51.068 59.4194 50.6274C60.1062 50.4682 60.7445 50.1435 61.2798 49.6811C61.8152 49.2187 62.2317 48.6324 62.4937 47.9723C62.7659 47.25 62.907 46.4769 63.1489 45.5918C63.6597 47.0839 64.6358 48.3688 65.9309 49.2541C66.5288 49.7666 67.2111 50.1695 67.9468 50.4443C69.763 50.9912 71.6913 51.0369 73.5309 50.5765C74.2329 50.4265 74.9112 50.18 75.5468 49.8441C76.1724 49.4049 76.7354 48.8812 77.22 48.2876C78.2032 47.1945 78.8967 45.8682 79.236 44.4321C79.9617 41.7872 78.8429 37.6367 76.0004 35.8768C74.6459 34.9425 73.0615 34.4051 71.4228 34.3243C69.7841 34.2435 68.1553 34.6224 66.7171 35.419C65.6174 35.959 64.671 36.7711 63.9661 37.7797C63.2611 38.7882 62.8205 39.9604 62.6852 41.187C62.5542 42.2043 62.5743 43.2826 62.5441 44.1168C62.3323 43.7077 62.0642 43.331 61.7478 42.9978C61.0725 42.4383 60.2963 41.9805 59.5706 41.5024C58.8449 41.0242 57.8974 40.4139 57.1011 39.8239C56.8995 39.6713 56.8693 39.2847 56.7685 39.01C56.9999 38.8877 57.2538 38.815 57.5144 38.7964C57.8492 38.8608 58.1701 38.9848 58.4618 39.1626C58.9255 39.3661 59.2783 39.6204 59.7319 39.9154V39.9357ZM22.5381 46.2226C22.2861 44.5135 22.0441 42.9774 21.8224 41.4413C21.6914 40.5054 21.5704 39.5695 21.4495 38.6336C21.3285 37.6977 21.2075 36.5991 21.0765 35.6326C20.9858 34.9918 20.7741 34.7883 20.129 34.768C19.1211 34.768 18.1131 34.768 17.1051 34.768C16.3693 34.768 16.3088 34.8799 16.2181 35.6326C16.0669 36.8025 15.9057 37.9724 15.7444 39.1423C15.442 41.1768 15.1396 43.2114 14.8271 45.246C14.8271 45.541 14.7364 45.836 14.6759 46.2022C14.4643 44.6458 14.2828 43.1504 14.0712 41.7363C13.7889 39.7018 13.4865 37.7486 13.2043 35.7445C13.0934 34.9612 12.9826 34.8086 12.1964 34.7985H8.84991C7.98307 34.7985 7.89235 34.9104 8.0637 35.7547C8.608 38.3691 9.1523 40.9734 9.68652 43.5878C10.1099 45.6224 10.5231 47.6569 10.9263 49.6915C11.0876 50.4544 11.1985 50.5664 12.025 50.5765C13.285 50.5765 14.5449 50.5765 15.8049 50.5765C17.2866 50.5765 17.2664 50.5765 17.5386 49.132C17.8611 47.3721 18.224 45.6224 18.607 43.72C18.6876 44.0761 18.7481 44.2897 18.7884 44.5033C19.1311 46.2632 19.4839 48.013 19.7964 49.7627C19.8972 50.2815 20.0685 50.5664 20.6834 50.5562C22.2054 50.5562 23.7073 50.5562 25.2394 50.5562C26.0659 50.5562 26.1062 50.5562 26.2474 49.6406C26.5901 47.9519 26.9227 46.2531 27.2553 44.5542C27.9004 41.6244 28.559 38.715 29.2309 35.8259C29.4224 34.9104 29.3216 34.8087 28.3742 34.7374H27.6887C26.8017 34.7374 25.9147 34.7374 25.0277 34.7374C24.1407 34.7374 24.2717 34.7374 24.1609 35.4394C23.8786 37.2806 23.5863 39.1321 23.3142 40.9836C23.0219 42.6519 22.8001 44.3406 22.5381 46.2022V46.2226ZM46.9005 82.5497H46.709C46.355 82.3509 46.0178 82.123 45.701 81.8681C45.4583 81.5904 45.1389 81.392 44.7838 81.2985C44.552 81.2476 44.3605 80.9119 44.1891 80.6779C44.0177 80.4439 43.6851 79.8641 43.3827 79.508C43.0803 79.152 42.6973 78.9689 42.4252 78.6332C41.484 77.7047 40.3933 76.9445 39.1997 76.385C38.2478 75.8313 37.2323 75.3974 36.1758 75.093C35.0312 74.741 33.8665 74.4591 32.6882 74.2487C32.0028 74.1063 31.7408 74.3097 31.6803 74.9811C31.6299 76.3036 31.3174 77.5854 31.388 78.9384C31.4484 81.879 32.22 84.7601 33.6357 87.3309C33.9583 87.8803 34.2707 88.4194 34.6437 88.9484C34.9577 89.4813 35.3222 89.9821 35.7323 90.4438C36.6168 91.4129 37.5812 92.3045 38.6151 93.1091C40.0698 94.1711 41.6599 95.0299 43.3424 95.6625C43.5419 95.7722 43.7686 95.8214 43.9952 95.8042C44.2218 95.787 44.4386 95.7041 44.6196 95.5655C44.8006 95.4269 44.9381 95.2384 45.0155 95.0228C45.0929 94.8072 45.107 94.5737 45.0559 94.3502C44.968 93.9954 44.968 93.6241 45.0559 93.2693C45.1438 92.9145 45.3169 92.5869 45.5599 92.3156C45.6336 92.2303 45.6873 92.1292 45.717 92.02C45.7467 91.9108 45.7516 91.7963 45.7313 91.6849C45.6773 91.5539 45.6511 91.413 45.6543 91.2712C45.6575 91.1294 45.69 90.9898 45.7498 90.8615C45.8096 90.7331 45.8953 90.6188 46.0015 90.5258C46.1077 90.4329 46.2319 90.3634 46.3663 90.3217C46.6138 90.1827 46.8137 89.9712 46.9397 89.7151C47.0656 89.459 47.1117 89.1704 47.0719 88.8874C47.1306 88.5467 47.1169 88.1973 47.0318 87.8623C46.9466 87.5274 46.7919 87.2145 46.578 86.9444C46.5074 86.8732 46.5175 86.7307 46.4973 86.6188C46.4254 86.2075 46.3209 85.8027 46.1849 85.4083C46.0538 85.0929 45.9833 84.8793 46.3159 84.6962C46.4066 84.6962 46.5276 84.5538 46.5477 84.4622C46.6687 83.8315 46.7896 83.1906 46.9005 82.5497ZM88.9326 40.658C88.6728 40.4066 88.4335 40.1344 88.2169 39.8442C87.3702 38.481 86.5135 37.1281 85.7373 35.7751C85.5839 35.4531 85.3391 35.1844 85.034 35.0032C84.7288 34.8221 84.3772 34.7366 84.0238 34.7578C82.9352 34.7578 81.8466 34.7578 80.7681 34.6764C80.6367 34.6642 80.5056 34.7025 80.401 34.7836C80.2964 34.8647 80.2259 34.9826 80.2036 35.1138C80.1784 35.3403 80.1784 35.5689 80.2036 35.7954V49.193C80.1883 49.4233 80.1883 49.6544 80.2036 49.8848C80.2842 50.4545 80.3951 50.546 80.9797 50.5358C82.0683 50.5358 83.1569 50.5358 84.2455 50.5358C85.0721 50.5358 85.1729 50.4748 85.183 49.6101C85.183 48.1656 85.183 46.721 85.183 45.2765C85.183 45.073 85.183 44.8594 85.2535 44.5237C85.445 44.7882 85.5559 44.9204 85.6365 45.0629C86.6445 46.721 87.6525 48.3283 88.6604 49.9051C88.8822 50.2307 89.0938 50.5155 89.5273 50.5155H93.2971C93.3837 50.5255 93.4715 50.5154 93.5538 50.4861C93.636 50.4568 93.7106 50.4089 93.7718 50.3462C93.833 50.2834 93.8792 50.2074 93.907 50.124C93.9348 50.0405 93.9434 49.9517 93.9321 49.8644C93.9321 49.6915 93.9321 49.5186 93.9321 49.3456V35.6937C93.9321 35.4088 93.9321 35.1342 93.9321 34.6764H89.7087C89.5648 34.6622 89.4202 34.6942 89.2954 34.768C89.1358 34.9 89.0256 35.083 88.983 35.2868C88.9225 37.1077 88.9326 38.8574 88.9326 40.658ZM48.4326 60.5052C47.9764 60.4691 47.518 60.4691 47.0618 60.5052C44.6513 60.8312 42.3324 61.6517 40.248 62.9162C38.4467 63.964 36.8567 65.3443 35.5609 66.9853C34.4012 68.4717 33.4483 70.1112 32.7286 71.8581C32.4564 72.5702 32.5169 72.6617 33.2829 72.7736C36.3982 73.2336 39.3578 74.4444 41.9111 76.3036C42.9191 77.0157 43.796 77.8804 44.7233 78.684C45.1265 79.0299 45.449 79.4979 46.074 79.4673C46.1527 79.4859 46.2259 79.5233 46.2873 79.5765C46.3487 79.6296 46.3965 79.6968 46.4268 79.7725C46.5981 80.4846 47.2835 80.5762 47.7371 80.9322C48.0194 81.1662 48.5536 80.9322 48.7451 80.6067C48.9366 80.2812 49.0979 79.8743 48.7451 79.681C47.8682 79.1825 47.9488 78.3687 47.8883 77.5752C47.9069 77.2284 47.8519 76.8816 47.727 76.5579C47.3495 75.7744 47.2499 74.8838 47.4448 74.0351C47.4998 73.5827 47.5301 73.1276 47.5355 72.6719C47.4601 71.8369 47.6508 70.9993 48.0798 70.2813C48.2012 70.0538 48.2571 69.7965 48.2411 69.5387C48.3217 66.853 48.4024 64.1776 48.4729 61.492C48.4729 61.197 48.4528 60.9121 48.4326 60.5052ZM30.8638 34.7781C30.8033 34.9816 30.7227 35.1749 30.6824 35.3682C30.3094 37.4027 29.9567 39.4373 29.5736 41.4006C29.1402 43.6692 28.6866 45.9275 28.233 48.1859C28.1121 48.7759 27.9811 49.366 27.8702 49.9662C27.7996 50.3527 27.9307 50.5664 28.3742 50.5358C28.8177 50.5053 29.5232 50.5358 30.0877 50.5358H32.789C32.8797 50.251 33.0209 49.8339 33.1317 49.3965C33.2426 48.959 33.2325 48.6539 33.293 48.2876C33.3535 47.9214 33.293 47.0669 33.6458 46.8431C33.9986 46.6193 34.6538 46.7007 35.2182 46.6905C35.954 46.6905 36.0347 46.7719 36.1456 47.5145C36.2564 48.2571 36.3572 48.9794 36.4983 49.7118C36.6395 50.4443 36.71 50.4951 37.5063 50.5053C38.6856 50.5053 39.8549 50.5053 41.0342 50.5053H41.7599C40.7519 45.2053 39.8145 40.007 38.736 34.7781H30.8638ZM56.9701 32.8148C56.8793 32.5503 56.7786 32.3468 56.7282 32.1332C56.1939 29.4374 55.6496 26.7416 55.1356 23.9949C54.7626 22.0418 54.4199 20.0886 54.0571 18.1354C53.8958 17.2402 53.7647 17.1181 52.8878 17.1181H46.84C45.9026 17.1181 45.8926 17.1181 45.7111 18.0337C45.3684 19.8139 45.0459 21.5942 44.7032 23.3744C44.4008 24.8495 44.048 26.3245 43.7557 27.7996C43.4634 29.2746 43.2719 30.5259 43.04 31.8687C42.9966 32.1281 42.9663 32.3895 42.9493 32.652C43.0803 32.7232 43.1207 32.7741 43.1711 32.7741C44.6326 32.7741 46.0841 32.7741 47.5456 32.7741C47.8984 32.7741 48.0395 32.5808 48.1 32.2553C48.3577 31.409 48.4769 30.5259 48.4528 29.6409C48.4528 29.356 48.4528 29 48.8257 28.9898C49.5515 28.9898 50.2873 28.9898 51.0533 28.9898C51.2348 30.119 51.4263 31.1363 51.5573 32.1535C51.6279 32.6927 51.9101 32.8046 52.3738 32.7944C53.5732 32.7944 54.7727 32.7944 55.9722 32.7944C56.3149 32.886 56.6173 32.8453 56.9701 32.8148ZM77.4317 32.886H82.0079C82.3506 32.886 82.5723 32.6927 82.532 32.357C82.4917 32.0213 82.3103 31.4923 82.2195 31.0549C81.6652 28.2574 81.1209 25.4598 80.5665 22.6623C80.2439 21.055 79.8911 19.4579 79.5585 17.8404C79.5539 17.7411 79.5288 17.6439 79.4847 17.5551C79.4407 17.4662 79.3787 17.3876 79.3027 17.3244C79.2268 17.2611 79.1385 17.2146 79.0437 17.1879C78.9489 17.1611 78.8496 17.1547 78.7521 17.169H72.3415C72.2422 17.1532 72.1408 17.1584 72.0437 17.1843C71.9465 17.2102 71.8557 17.2561 71.7771 17.3192C71.6984 17.3824 71.6336 17.4613 71.5868 17.551C71.5399 17.6407 71.512 17.7392 71.5049 17.8404C71.3235 18.8577 71.0916 19.8139 70.9001 20.8007C70.4969 22.9166 70.124 25.0427 69.7208 27.1689C69.3982 28.8372 69.0455 30.4954 68.7128 32.1637C68.602 32.7741 68.7128 32.886 69.3075 32.886C70.5876 32.886 71.8778 32.886 73.168 32.886C73.5813 32.886 73.8131 32.7334 73.8534 32.3061C73.8979 31.7908 73.9685 31.2781 74.0651 30.77C74.1636 30.3888 74.2882 30.0149 74.4381 29.651L74.1357 29.122H76.7665L77.4317 32.886ZM36.8612 29.3153C38.2018 29.0407 39.3408 28.827 40.4697 28.5829C40.791 28.4999 41.0972 28.366 41.3769 28.1861C42.0119 27.7888 42.5489 27.2507 42.9471 26.6126C43.3453 25.9745 43.5943 25.2533 43.675 24.5036C43.8902 23.6387 43.908 22.7359 43.7271 21.863C43.5462 20.9902 43.1713 20.1703 42.6307 19.465C42.0901 18.7597 41.3979 18.1875 40.6062 17.7915C39.8146 17.3956 38.9442 17.1862 38.0607 17.1791C36.2262 17.0978 34.3917 17.1791 32.5673 17.1791C31.8617 17.1791 31.8113 17.2402 31.7508 17.9828C31.7356 18.2131 31.7356 18.4442 31.7508 18.6746C31.7508 20.5769 31.7508 22.4792 31.7508 24.3917C31.7508 26.9281 31.7508 29.4679 31.7508 32.0111C31.7508 32.8453 31.8113 32.886 32.6378 32.8962H35.9843C36.3572 32.8962 36.7201 32.8962 36.8814 32.6113L36.8612 29.3153ZM62.3828 29.1729C63.4513 29.0508 64.3988 29.0101 65.316 28.8474C66.0082 28.7398 66.6674 28.4763 67.245 28.0766C67.8225 27.6768 68.3036 27.151 68.6524 26.5381C69.4081 25.1305 69.6574 23.5021 69.3579 21.9299C69.2401 21.0106 68.8794 20.1402 68.3137 19.41C67.7479 18.6798 66.998 18.1165 66.1425 17.7793C65.1383 17.3524 64.057 17.1411 62.9674 17.1588C61.5059 17.1588 60.0444 17.1588 58.5929 17.0978C57.6857 17.0978 57.4841 17.2198 57.474 18.115C57.474 22.7674 57.474 27.4164 57.474 32.062C57.4844 32.3208 57.5079 32.5788 57.5446 32.8351H59.9335H62.3727L62.3828 29.1729ZM27.6887 23.8729C28.4044 23.8729 28.9991 23.8729 29.5938 23.8729C30.1885 23.8729 30.2288 23.4456 30.2994 23.059C30.3699 22.6725 30.3498 22.2045 30.38 21.7773C30.38 21.1567 30.2691 21.0041 29.6644 21.0041C29.0596 21.0041 28.6564 21.0041 28.1322 21.0041C28.3542 19.6796 28.4722 18.3394 28.485 16.996H26.076C26.0111 16.9905 25.9457 16.9979 25.8837 17.0179C25.8217 17.038 25.7642 17.0702 25.7145 17.1127C25.6649 17.1553 25.624 17.2073 25.5944 17.2659C25.5647 17.3244 25.5469 17.3883 25.5418 17.4538C25.4208 18.1863 25.2596 18.9187 25.189 19.6613C25.0781 21.0143 25.0277 21.0753 23.7174 21.0041C23.6367 21.0041 23.5662 20.9431 23.4654 20.9024C23.3956 20.2732 23.4539 19.6363 23.6367 19.0306C23.8244 18.567 23.8937 18.0633 23.8383 17.5657C23.8383 17.0571 23.6267 16.8841 23.0924 16.9147L21.641 16.9859C20.8447 16.9859 20.754 17.1588 20.6935 18.0031C20.6128 19.0204 20.4616 20.0377 20.3306 21.055C19.8135 21.0287 19.2954 21.0287 18.7783 21.055C18.5566 21.055 18.2139 21.2178 18.1736 21.3805C17.9295 22.18 17.8608 23.0235 17.972 23.8525L19.8871 23.9441L19.6049 25.9074H18.1433C18.0424 25.8991 17.9408 25.9114 17.8447 25.9434C17.7485 25.9755 17.6598 26.0268 17.5836 26.0941C17.5074 26.1615 17.4455 26.2436 17.4014 26.3356C17.3573 26.4276 17.3319 26.5276 17.3269 26.6297C17.2664 27.1383 17.1858 27.647 17.1152 28.1658C17.0447 28.6846 17.2664 28.7558 17.6595 28.7456H18.607C18.9699 28.7456 19.1311 28.9389 19.111 29.295C19.0908 29.651 19.0606 29.7528 19.0303 29.9766C18.9195 30.7192 18.7985 31.4618 18.6977 32.2044C18.6272 32.7537 18.6977 32.8758 19.2723 32.9063H20.4717C21.4797 32.9063 21.5402 32.8351 21.6813 31.7975C21.8224 30.7599 21.9837 29.8138 22.1449 28.8169H23.9694C24.0198 30.1902 23.5057 31.4618 23.6065 32.886H25.6224C26.3179 32.886 26.328 32.886 26.4389 32.1841C26.6304 31.0447 26.8017 29.9155 26.9832 28.766C27.1974 28.7923 27.414 28.7923 27.6283 28.766C28.1826 28.5931 28.9487 29.0915 29.2914 28.4506C29.5184 27.8883 29.6381 27.2877 29.6442 26.6806C29.7147 25.9888 29.6442 25.9176 28.8781 25.8973L27.4065 25.8464L27.6887 23.8729ZM40.7015 34.7781C40.4697 35.714 40.2681 36.5279 40.0564 37.3315C40.0564 37.3925 40.0564 37.4434 40.0564 37.5044C39.7843 38.8066 39.8851 38.9286 41.2358 38.9286H42.1732H43.5642V41.4922C43.5642 44.2083 43.5642 46.9245 43.5642 49.6305C43.5642 50.3832 43.6347 50.485 44.2093 50.5053C45.4289 50.5053 46.6586 50.5053 47.8883 50.5053C47.9735 50.5194 48.0608 50.5128 48.143 50.486C48.2252 50.4593 48.2999 50.4132 48.361 50.3516C48.422 50.29 48.4677 50.2146 48.4941 50.1317C48.5206 50.0487 48.5272 49.9606 48.5133 49.8746V38.9286C49.2793 38.9286 49.9647 38.9286 50.6401 38.9286C50.7447 38.949 50.8525 38.9468 50.9563 38.9222C51.0601 38.8976 51.1576 38.8511 51.2423 38.7858C51.327 38.7204 51.3971 38.6378 51.4479 38.5432C51.4987 38.4486 51.5291 38.3442 51.5371 38.2369C51.7287 37.3112 51.9303 36.3854 52.1117 35.4495C52.1329 35.2262 52.1329 35.0014 52.1117 34.7781C48.2713 34.6764 44.5116 34.6764 40.7015 34.7781Z" fill="#FAFAFA"/>
</svg>
