<svg width="59" height="59" viewBox="0 0 59 59" fill="none" xmlns="http://www.w3.org/2000/svg">
<g clip-path="url(#clip0_32_46)">
<path d="M28.6882 57.8046C36.0059 57.8046 41.9381 52.0854 41.9381 45.0305C41.9381 37.9755 36.0059 32.2563 28.6882 32.2563C21.3705 32.2563 15.4384 37.9755 15.4384 45.0305C15.4384 52.0854 21.3705 57.8046 28.6882 57.8046Z" fill="#098BAB"/>
<path d="M8.77777 32.2565L2.65833 24.8346L4.71598 18.4833L9.74713 10.5976L14.6415 6.87476L33.6124 7.22563L45.5599 7.85006L48.6939 10.77L54.1592 18.2156L56.6391 21.0524L55.8422 31.1622L33.6124 31.7807L8.77777 32.2565Z" fill="#098BAB"/>
<path d="M29.3484 59.0119C28.2363 58.9286 26.916 58.8929 25.6196 58.7086C24.255 58.527 22.9041 58.2549 21.5756 57.8938C20.1993 57.4991 18.8504 57.0143 17.5376 56.4428C16.4749 55.9475 15.4406 55.3936 14.4393 54.7836C13.7171 54.3856 13.0182 53.9468 12.3459 53.4693C11.6026 52.9281 10.8889 52.3334 10.1931 51.7387C9.49733 51.144 8.88479 50.5493 8.28415 49.9546C7.6835 49.3599 7.15422 48.676 6.61304 48.0159C6.07187 47.3558 5.54259 46.6719 5.04899 45.9761C4.75759 45.5657 4.53755 45.1078 4.28777 44.6737C3.91311 44.0195 3.52656 43.3713 3.15785 42.7171C2.55398 41.6132 2.06191 40.4518 1.68894 39.2501C1.53432 38.7743 1.34996 38.3104 1.21318 37.8347C1.02288 37.1508 0.844471 36.4669 0.695797 35.777C0.547122 35.0872 0.380607 34.2308 0.279508 33.4517C0.178409 32.6727 0.142728 31.9531 0.0832577 31.2097C0.0475759 30.7102 0 30.1987 0 29.6992C0.0356819 28.6347 0.112993 27.5761 0.172462 26.5176C0.27814 25.003 0.535141 23.5029 0.939623 22.0395C1.26735 20.5999 1.76025 19.2031 2.40853 17.8766C2.59288 17.5257 2.71182 17.1332 2.89618 16.7764C3.38383 15.8427 3.85959 14.8972 4.39482 13.9873C4.84084 13.2617 5.35228 12.5422 5.85778 11.8404C6.36327 11.1387 6.84498 10.5678 7.3802 9.96712C7.91469 9.33659 8.48874 8.74069 9.09888 8.18303C10.1931 7.22556 11.2993 6.29189 12.4887 5.41173C13.2637 4.82601 14.0828 4.30111 14.9388 3.84173C16.0866 3.24703 17.2581 2.65233 18.4594 2.129C19.3763 1.76228 20.3135 1.44855 21.2664 1.18938C22.1798 0.910728 23.1068 0.678499 24.0436 0.493581C25.0531 0.311395 26.0714 0.182366 27.0944 0.107027C28.0685 0.00910868 29.0477 -0.0266456 30.0263 -1.86684e-05C31.5075 0.0608911 32.9844 0.199847 34.4509 0.41627C36.386 0.694228 38.2783 1.21575 40.0827 1.96843C40.9866 2.36688 41.8667 2.76533 42.7945 3.15783C43.1751 3.33029 43.5378 3.53843 43.9125 3.71684C44.192 3.84768 44.3764 4.10934 44.6975 4.21639C45.0614 4.36482 45.402 4.56512 45.7085 4.81109C45.8631 4.92408 45.9642 5.10844 46.1129 5.23332C46.2616 5.35821 46.327 5.23332 46.4043 5.29279C46.8111 5.51895 47.1869 5.7968 47.5223 6.11942C47.8511 6.45015 48.2139 6.74517 48.6047 6.99958C49.8157 7.96473 50.9095 9.06849 51.8636 10.2883C51.8636 10.6689 52.2918 10.657 52.4583 10.883C52.6248 11.1089 52.827 11.3647 53.0054 11.6085C54.136 13.0898 55.1068 14.6866 55.9016 16.372C56.3239 17.2997 56.7639 18.2215 57.1208 19.173C57.5094 20.1894 57.8371 21.228 58.102 22.2833C58.3764 23.4107 58.5889 24.5522 58.7383 25.7028C58.8971 26.842 58.9845 27.9901 59 29.1402C59 30.3296 58.8573 31.5666 58.7978 32.7738C58.7109 33.9361 58.5118 35.0872 58.2031 36.2111C57.9058 37.4005 57.5252 38.5899 57.1326 39.7318C56.8961 40.4507 56.614 41.1539 56.2882 41.837C55.6334 43.2358 54.8782 44.5853 54.0283 45.875C53.5882 46.5232 53.1303 47.1595 52.6308 47.7661C51.6821 48.9664 50.6465 50.0954 49.5324 51.144C48.5749 52.0063 47.564 52.8092 46.5589 53.5823C45.9476 54.0145 45.3122 54.4116 44.6559 54.7717C43.9303 55.1999 43.1929 55.6043 42.4496 55.9968C41.0913 56.6893 39.6718 57.2547 38.2094 57.6857C36.2681 58.3132 34.2603 58.7124 32.2267 58.8751L29.3484 59.0119ZM32.1434 55.408C32.5478 55.9016 32.6014 55.9313 33.1306 55.6875C33.749 55.4237 34.3455 55.1115 34.9147 54.7538C35.3417 54.5133 35.7406 54.2261 36.1041 53.8975C36.8878 53.1632 37.577 52.3341 38.1558 51.4295C38.4836 50.9177 38.7624 50.3761 38.9884 49.8119C39.3066 48.9245 39.5279 48.0053 39.6485 47.0703C39.8168 45.7229 39.7219 44.3555 39.369 43.0442C39.1464 42.3612 38.8883 41.6903 38.5959 41.0341C38.4056 40.5822 38.1737 40.1421 37.9596 39.6961C37.9389 39.6623 37.9127 39.6322 37.8823 39.6069C37.7276 39.476 37.5611 39.3512 37.4125 39.2084C36.8078 38.5522 36.1665 37.9307 35.4916 37.347C34.2968 36.4245 32.9078 35.7859 31.4298 35.4797C31.0673 35.4016 30.6996 35.3499 30.3296 35.325C29.9193 35.325 29.8717 35.3607 29.8657 35.783V35.8841C29.9371 37.2994 30.0025 38.7148 30.0798 40.1302C30.0684 40.4649 30.1314 40.798 30.2642 41.1055C30.5152 41.5665 30.6092 42.0968 30.5318 42.616C30.5169 42.7981 30.5169 42.9811 30.5318 43.1632C30.6108 43.7342 30.5703 44.3154 30.4129 44.8699C30.3356 45.1019 30.3177 45.3576 30.2523 45.6014C30.1789 45.939 30.0651 46.2664 29.9133 46.5767C29.7527 46.8503 29.8717 47.3082 30.1928 47.3439C30.3906 47.3593 30.5867 47.2975 30.7399 47.1714C31.0789 46.8741 31.3763 46.5292 31.6677 46.2199L32.4527 46.2734L32.6073 47.2428L32.2743 47.4688C32.1078 47.5758 31.9353 47.665 31.7747 47.7721C31.6523 47.8854 31.5165 47.9832 31.3703 48.0635C31.3163 48.0752 31.2653 48.0978 31.2205 48.13C31.1756 48.1622 31.1377 48.2033 31.1093 48.2506C31.0809 48.298 31.0625 48.3507 31.0552 48.4054C31.0479 48.4602 31.052 48.5158 31.067 48.569C31.1503 48.9377 31.1265 49.3659 31.5487 49.5859C31.5963 49.5859 31.6201 49.687 31.6498 49.7405C31.5071 50.0795 31.1206 50.3352 31.2871 50.7396C31.2871 50.7812 31.2276 50.8526 31.1919 50.9121C31.003 51.3324 30.9652 51.8051 31.0849 52.2502C31.1206 52.4702 31.3763 52.6783 31.5606 52.8449C31.745 53.0114 31.9056 53.1898 31.8223 53.4395C31.779 53.5593 31.7752 53.6898 31.8116 53.8119C31.848 53.9339 31.9226 54.041 32.0245 54.1175C32.1494 54.2563 32.2346 54.4262 32.2712 54.6093C32.3078 54.7924 32.2945 54.982 32.2326 55.1582C32.2089 55.2296 32.1732 55.3069 32.1434 55.408ZM35.2418 23.2943C35.7414 22.7531 36.229 22.2417 36.6929 21.7184C36.901 21.4864 36.7642 21.2842 36.5561 21.1237C35.7524 20.394 34.6974 20.0039 33.6123 20.0354C33.3566 20.0354 33.1068 20.0948 32.8571 20.1365C32.2999 20.2466 31.7859 20.5141 31.3759 20.9072C30.966 21.3003 30.6772 21.8026 30.5437 22.3547C30.4842 22.6851 30.4842 23.0234 30.5437 23.3538C30.6347 23.7761 30.8244 24.1709 31.0972 24.5058C31.3701 24.8407 31.7185 25.1062 32.1137 25.2806C32.6199 25.6596 33.1593 25.992 33.7253 26.2737C33.8319 26.3282 33.9253 26.4054 33.9989 26.4997C34.2487 26.7614 34.1892 27.0469 33.8443 27.0944C33.4974 27.1418 33.1443 27.1134 32.8095 27.0112C32.3951 26.8227 31.9973 26.5999 31.6201 26.3451L30.0204 28.2243C30.5582 28.7547 31.2058 29.1607 31.9174 29.4137C32.9301 29.7567 34.0198 29.8021 35.0575 29.5446C35.4626 29.4515 35.8392 29.2617 36.1551 28.9914C36.471 28.7211 36.7167 28.3783 36.8713 27.9924C37.0319 27.5702 37.1151 27.1182 37.2578 26.6008C37.5592 27.4731 38.1351 28.2242 38.8992 28.7417C39.252 29.0414 39.6545 29.2769 40.0886 29.4375C41.1602 29.7573 42.2978 29.784 43.3832 29.5148C43.7974 29.4271 44.1976 29.2831 44.5726 29.0867C44.9417 28.8299 45.2739 28.5238 45.5598 28.1768C46.1399 27.5377 46.549 26.7624 46.7492 25.9229C47.1774 24.3767 46.5173 21.9503 44.8402 20.9215C44.0411 20.3752 43.1063 20.0611 42.1395 20.0139C41.1726 19.9666 40.2116 20.1881 39.3631 20.6538C38.7143 20.9695 38.1559 21.4443 37.74 22.0339C37.3241 22.6234 37.0641 23.3087 36.9843 24.0258C36.907 24.6205 36.9189 25.2509 36.901 25.7385C36.7761 25.4994 36.6179 25.2792 36.4312 25.0843C36.0328 24.7573 35.5748 24.4896 35.1467 24.2101C34.7185 23.9306 34.1595 23.5738 33.6897 23.2289C33.5707 23.1397 33.5529 22.9137 33.4934 22.7531C33.6299 22.6816 33.7797 22.6391 33.9335 22.6282C34.131 22.6659 34.3203 22.7384 34.4925 22.8423C34.7661 22.9613 34.9742 23.1099 35.2418 23.2824V23.2943ZM13.2975 26.9695C13.1488 25.9704 13.006 25.0725 12.8752 24.1745C12.7979 23.6273 12.7265 23.0802 12.6552 22.5331C12.5838 21.986 12.5124 21.3437 12.4351 20.7787C12.3816 20.4041 12.2567 20.2851 11.8761 20.2732C11.2814 20.2732 10.6867 20.2732 10.092 20.2732C9.6579 20.2732 9.62222 20.3387 9.56869 20.7787C9.47949 21.4626 9.38434 22.1465 9.28918 22.8304C9.11077 24.0198 8.93237 25.2092 8.74801 26.3986C8.74801 26.5711 8.69449 26.7436 8.6588 26.9576C8.53392 26.0478 8.42687 25.1735 8.30199 24.3469C8.13547 23.1575 7.95706 22.0157 7.79055 20.8441C7.72513 20.3862 7.65971 20.297 7.19585 20.2911H5.22145C4.71001 20.2911 4.65649 20.3565 4.75759 20.8501C5.07872 22.3785 5.39986 23.9009 5.71505 25.4293C5.96482 26.6187 6.20865 27.8081 6.44653 28.9975C6.54168 29.4435 6.6071 29.5089 7.09475 29.5148C7.83812 29.5148 8.58149 29.5148 9.32487 29.5148C10.1991 29.5148 10.1872 29.5148 10.3477 28.6704C10.5381 27.6415 10.7521 26.6187 10.9781 25.5066C11.0257 25.7147 11.0614 25.8396 11.0852 25.9645C11.2874 26.9933 11.4955 28.0162 11.6799 29.0391C11.7393 29.3424 11.8404 29.5089 12.2032 29.503C13.1012 29.503 13.9873 29.503 14.8912 29.503C15.3789 29.503 15.4027 29.503 15.4859 28.9677C15.6881 27.9805 15.8844 26.9874 16.0806 25.9942C16.4612 24.2815 16.8498 22.5807 17.2462 20.8917C17.3592 20.3565 17.2998 20.297 16.7408 20.2554H16.3364C15.813 20.2554 15.2897 20.2554 14.7664 20.2554C14.243 20.2554 14.3203 20.2554 14.2549 20.6657C14.0884 21.7421 13.9159 22.8245 13.7554 23.9068C13.5829 24.8821 13.4521 25.8693 13.2975 26.9576V26.9695ZM27.6713 48.2062H27.5583C27.3494 48.09 27.1505 47.9567 26.9636 47.8078C26.8204 47.6454 26.6319 47.5294 26.4224 47.4747C26.2857 47.445 26.1727 47.2487 26.0716 47.112C25.9705 46.9752 25.7742 46.6362 25.5958 46.4281C25.4174 46.2199 25.1914 46.1129 25.0308 45.9166C24.4756 45.3738 23.8321 44.9294 23.1278 44.6023C22.5662 44.2786 21.967 44.025 21.3437 43.8471C20.6684 43.6413 19.9812 43.4765 19.2861 43.3535C18.8817 43.2702 18.727 43.3892 18.6914 43.7817C18.6616 44.5548 18.4773 45.3041 18.5189 46.095C18.5545 47.8141 19.0098 49.4984 19.8451 51.0013C20.0354 51.3224 20.2197 51.6376 20.4398 51.9469C20.625 52.2584 20.8401 52.5512 21.082 52.8211C21.6039 53.3876 22.1729 53.9088 22.7829 54.3792C23.6412 55 24.5794 55.5021 25.572 55.8719C25.6897 55.936 25.8235 55.9648 25.9572 55.9547C26.0908 55.9447 26.2188 55.8962 26.3256 55.8152C26.4324 55.7341 26.5135 55.624 26.5591 55.4979C26.6048 55.3719 26.6131 55.2353 26.583 55.1047C26.5311 54.8973 26.5311 54.6803 26.583 54.4728C26.6348 54.2654 26.737 54.0739 26.8804 53.9153C26.9239 53.8654 26.9555 53.8063 26.973 53.7425C26.9905 53.6787 26.9934 53.6117 26.9815 53.5466C26.9496 53.47 26.9341 53.3876 26.936 53.3047C26.9379 53.2218 26.9571 53.1403 26.9924 53.0652C27.0277 52.9902 27.0782 52.9233 27.1409 52.869C27.2035 52.8147 27.2768 52.774 27.3561 52.7497C27.5021 52.6684 27.6201 52.5447 27.6944 52.3951C27.7687 52.2453 27.7959 52.0766 27.7724 51.9112C27.807 51.712 27.799 51.5078 27.7487 51.3119C27.6985 51.1161 27.6072 50.9332 27.481 50.7753C27.4394 50.7337 27.4453 50.6504 27.4334 50.585C27.391 50.3446 27.3293 50.1079 27.2491 49.8773C27.1718 49.693 27.1301 49.5681 27.3264 49.461C27.3799 49.461 27.4513 49.3778 27.4632 49.3242C27.5345 48.9555 27.6059 48.5809 27.6713 48.2062ZM52.4702 23.7165C52.3169 23.5695 52.1757 23.4104 52.048 23.2408C51.5484 22.4439 51.0429 21.6529 50.585 20.862C50.4945 20.6737 50.3501 20.5167 50.17 20.4108C49.99 20.3049 49.7825 20.2549 49.574 20.2673C48.9318 20.2673 48.2895 20.2673 47.6532 20.2197C47.5757 20.2126 47.4983 20.235 47.4366 20.2824C47.3749 20.3298 47.3333 20.3987 47.3201 20.4754C47.3053 20.6078 47.3053 20.7415 47.3201 20.8739V28.7061C47.3111 28.8407 47.3111 28.9758 47.3201 29.1105C47.3677 29.4435 47.4331 29.497 47.778 29.4911C48.4203 29.4911 49.0626 29.4911 49.7049 29.4911C50.1925 29.4911 50.252 29.4554 50.2579 28.9499C50.2579 28.1054 50.2579 27.2609 50.2579 26.4165C50.2579 26.2975 50.2579 26.1726 50.2996 25.9764C50.4126 26.131 50.478 26.2083 50.5256 26.2916C51.1203 27.2609 51.715 28.2006 52.3096 29.1223C52.4405 29.3126 52.5654 29.4792 52.8211 29.4792H55.0453C55.0964 29.485 55.1482 29.4791 55.1967 29.462C55.2453 29.4448 55.2893 29.4169 55.3254 29.3802C55.3615 29.3435 55.3887 29.2991 55.4051 29.2503C55.4215 29.2015 55.4266 29.1496 55.4199 29.0986C55.4199 28.9975 55.4199 28.8964 55.4199 28.7953V20.8144C55.4199 20.6479 55.4199 20.4873 55.4199 20.2197H52.9281C52.8432 20.2114 52.7579 20.2301 52.6843 20.2732C52.5901 20.3504 52.5251 20.4574 52.5 20.5765C52.4643 21.641 52.4702 22.6639 52.4702 23.7165ZM28.5752 35.3191C28.3061 35.298 28.0356 35.298 27.7665 35.3191C26.3443 35.5097 24.9761 35.9893 23.7463 36.7285C22.6835 37.3411 21.7454 38.148 20.9809 39.1073C20.2967 39.9763 19.7345 40.9347 19.3098 41.9559C19.1493 42.3722 19.185 42.4257 19.6369 42.4912C21.4749 42.7601 23.2211 43.4679 24.7275 44.5548C25.3222 44.971 25.8396 45.4765 26.3868 45.9464C26.6246 46.1486 26.8149 46.4221 27.1837 46.4043C27.2301 46.4151 27.2733 46.437 27.3095 46.4681C27.3457 46.4991 27.374 46.5384 27.3918 46.5827C27.4929 46.999 27.8973 47.0525 28.1649 47.2606C28.3314 47.3974 28.6466 47.2606 28.7596 47.0703C28.8726 46.88 28.9677 46.6421 28.7596 46.5292C28.2422 46.2378 28.2898 45.762 28.2541 45.2981C28.2651 45.0954 28.2326 44.8926 28.159 44.7034C27.9362 44.2454 27.8774 43.7248 27.9924 43.2286C28.0249 42.9641 28.0427 42.6981 28.046 42.4317C28.0014 41.9435 28.114 41.4539 28.3671 41.0341C28.4387 40.9012 28.4717 40.7508 28.4623 40.6C28.5098 39.03 28.5574 37.466 28.599 35.896C28.599 35.7235 28.5871 35.557 28.5752 35.3191ZM18.2097 20.2792C18.174 20.3981 18.1264 20.5111 18.1026 20.6241C17.8826 21.8135 17.6744 23.0029 17.4484 24.1507C17.1927 25.4768 16.9251 26.7971 16.6575 28.1173C16.5861 28.4622 16.5088 28.8072 16.4434 29.158C16.4018 29.384 16.4791 29.5089 16.7408 29.4911C17.0024 29.4732 17.4187 29.4911 17.7517 29.4911H19.3455C19.3991 29.3245 19.4823 29.0807 19.5477 28.825C19.6131 28.5693 19.6072 28.3909 19.6429 28.1768C19.6786 27.9627 19.6429 27.4631 19.851 27.3323C20.0592 27.2015 20.4457 27.249 20.7788 27.2431C21.2129 27.2431 21.2605 27.2907 21.3259 27.7248C21.3913 28.1589 21.4508 28.5812 21.534 29.0094C21.6173 29.4375 21.6589 29.4673 22.1287 29.4732C22.8245 29.4732 23.5144 29.4732 24.2102 29.4732H24.6383C24.0436 26.3748 23.4906 23.3359 22.8542 20.2792H18.2097ZM33.6123 19.1314C33.5588 18.9768 33.4993 18.8579 33.4696 18.733C33.1544 17.157 32.8333 15.5811 32.53 13.9754C32.31 12.8336 32.1078 11.6917 31.8937 10.5499C31.7985 10.0266 31.7212 9.95523 31.2038 9.95523H27.6356C27.0826 9.95523 27.0766 9.95523 26.9696 10.4905C26.7674 11.5312 26.5771 12.5719 26.3749 13.6126C26.1965 14.4749 25.9883 15.3372 25.8158 16.1996C25.6434 17.0619 25.5304 17.7933 25.3936 18.5784C25.368 18.73 25.3501 18.8828 25.3401 19.0363C25.4174 19.0779 25.4412 19.1076 25.4709 19.1076C26.3332 19.1076 27.1896 19.1076 28.0519 19.1076C28.2601 19.1076 28.3433 18.9946 28.379 18.8043C28.5311 18.3096 28.6014 17.7933 28.5871 17.276C28.5871 17.1094 28.5871 16.9013 28.8072 16.8954C29.2354 16.8954 29.6695 16.8954 30.1215 16.8954C30.2285 17.5555 30.3415 18.1502 30.4188 18.7449C30.4604 19.0601 30.627 19.1255 30.9005 19.1195C31.6082 19.1195 32.3159 19.1195 33.0236 19.1195C33.2258 19.173 33.4042 19.1493 33.6123 19.1314ZM45.6847 19.173H48.3846C48.5868 19.173 48.7177 19.0601 48.6939 18.8638C48.6701 18.6676 48.563 18.3583 48.5095 18.1026C48.1824 16.4672 47.8613 14.8318 47.5342 13.1963C47.3439 12.2567 47.1358 11.323 46.9395 10.3775C46.9368 10.3194 46.922 10.2626 46.896 10.2107C46.87 10.1587 46.8334 10.1128 46.7886 10.0758C46.7438 10.0388 46.6917 10.0117 46.6358 9.99601C46.5799 9.98036 46.5213 9.9766 46.4638 9.98496H42.6815C42.6229 9.97576 42.5631 9.97881 42.5058 9.99393C42.4484 10.0091 42.3949 10.0359 42.3485 10.0728C42.3021 10.1097 42.2638 10.1558 42.2362 10.2083C42.2086 10.2607 42.1921 10.3183 42.1879 10.3775C42.0808 10.9722 41.9441 11.5312 41.8311 12.108C41.5932 13.345 41.3731 14.5879 41.1353 15.8308C40.945 16.8062 40.7368 17.7755 40.5406 18.7508C40.4752 19.1076 40.5406 19.173 40.8914 19.173C41.6467 19.173 42.4079 19.173 43.1691 19.173C43.413 19.173 43.5497 19.0838 43.5735 18.8341C43.5997 18.5328 43.6414 18.2331 43.6984 17.9361C43.7565 17.7132 43.8301 17.4946 43.9185 17.2819L43.74 16.9727H45.2922L45.6847 19.173ZM21.7481 17.0857C22.5391 16.9251 23.2111 16.8002 23.8771 16.6575C24.0667 16.609 24.2473 16.5307 24.4124 16.4255C24.787 16.1933 25.1039 15.8787 25.3388 15.5056C25.5737 15.1326 25.7206 14.711 25.7683 14.2727C25.8952 13.7671 25.9057 13.2393 25.799 12.7291C25.6923 12.2189 25.4711 11.7395 25.1521 11.3272C24.8332 10.9149 24.4247 10.5804 23.9577 10.3489C23.4906 10.1174 22.9771 9.99502 22.4558 9.99091C21.3734 9.94333 20.2911 9.99091 19.2147 9.99091C18.7984 9.99091 18.7687 10.0266 18.733 10.4607C18.724 10.5954 18.724 10.7305 18.733 10.8651C18.733 11.9772 18.733 13.0893 18.733 14.2073C18.733 15.6901 18.733 17.1749 18.733 18.6616C18.733 19.1493 18.7687 19.173 19.2563 19.179H21.2307C21.4508 19.179 21.6649 19.179 21.76 19.0125L21.7481 17.0857ZM36.8059 17.0024C37.4362 16.931 37.9953 16.9072 38.5364 16.8121C38.9448 16.7492 39.3338 16.5952 39.6745 16.3615C40.0153 16.1278 40.2991 15.8204 40.5049 15.4621C40.9508 14.6392 41.0979 13.6873 40.9212 12.7681C40.8516 12.2307 40.6388 11.7219 40.3051 11.2951C39.9713 10.8682 39.5288 10.5389 39.0241 10.3418C38.4316 10.0922 37.7936 9.96864 37.1508 9.97902C36.2885 9.97902 35.4262 9.97901 34.5698 9.94333C34.0346 9.94333 33.9156 10.0147 33.9097 10.538C33.9097 13.2578 33.9097 15.9756 33.9097 18.6913C33.9158 18.8426 33.9297 18.9935 33.9513 19.1433H35.3608H36.7999L36.8059 17.0024ZM16.3364 13.904C16.7586 13.904 17.1095 13.904 17.4603 13.904C17.8112 13.904 17.835 13.6542 17.8766 13.4283C17.9183 13.2023 17.9064 12.9287 17.9242 12.6789C17.9242 12.3162 17.8588 12.227 17.502 12.227C17.1451 12.227 16.9073 12.227 16.598 12.227C16.729 11.4526 16.7986 10.6692 16.8062 9.88386H15.3848C15.3465 9.88061 15.308 9.88496 15.2714 9.89667C15.2348 9.90838 15.2009 9.92721 15.1716 9.95209C15.1423 9.97696 15.1182 10.0074 15.1007 10.0416C15.0832 10.0758 15.0726 10.1132 15.0697 10.1515C14.9983 10.5797 14.9031 11.0078 14.8615 11.442C14.7961 12.2329 14.7664 12.2686 13.9932 12.227C13.9457 12.227 13.904 12.1913 13.8446 12.1675C13.8034 11.7997 13.8378 11.4273 13.9457 11.0733C14.0564 10.8023 14.0973 10.5078 14.0646 10.2169C14.0646 9.91955 13.9397 9.81845 13.6245 9.83629L12.7682 9.87792C12.2984 9.87792 12.2448 9.97902 12.2092 10.4726C12.1616 11.0673 12.0724 11.662 11.9951 12.2567C11.69 12.2413 11.3843 12.2413 11.0792 12.2567C10.9484 12.2567 10.7462 12.3519 10.7224 12.447C10.5784 12.9144 10.5378 13.4075 10.6035 13.8921L11.7334 13.9457L11.5669 15.0934H10.7046C10.645 15.0886 10.5851 15.0957 10.5284 15.1145C10.4716 15.1332 10.4193 15.1632 10.3743 15.2026C10.3294 15.2419 10.2928 15.2899 10.2668 15.3437C10.2408 15.3975 10.2259 15.456 10.2229 15.5157C10.1872 15.813 10.1396 16.1104 10.098 16.4136C10.0563 16.7169 10.1872 16.7586 10.4191 16.7526H10.9781C11.1922 16.7526 11.2874 16.8656 11.2755 17.0738C11.2636 17.2819 11.2457 17.3414 11.2279 17.4722C11.1625 17.9063 11.0911 18.3405 11.0316 18.7746C10.99 19.0957 11.0317 19.1671 11.3706 19.1849H12.0783C12.673 19.1849 12.7087 19.1433 12.792 18.5367C12.8752 17.9301 12.9704 17.3771 13.0655 16.7943H14.1419C14.1717 17.5971 13.8684 18.3405 13.9278 19.173H15.1172C15.5276 19.173 15.5335 19.173 15.5989 18.7627C15.7119 18.0966 15.813 17.4365 15.9201 16.7645C16.0465 16.7799 16.1743 16.7799 16.3007 16.7645C16.6278 16.6634 17.0797 16.9548 17.2819 16.5802C17.4158 16.2514 17.4865 15.9003 17.4901 15.5454C17.5317 15.141 17.4901 15.0994 17.0381 15.0875L16.1698 15.0577L16.3364 13.904ZM24.0139 20.2792C23.8771 20.8263 23.7582 21.3021 23.6333 21.7719C23.6333 21.8076 23.6333 21.8373 23.6333 21.873C23.4727 22.6342 23.5322 22.7056 24.3291 22.7056H24.8822H25.7029V24.2042C25.7029 25.792 25.7029 27.3799 25.7029 28.9618C25.7029 29.4019 25.7445 29.4613 26.0835 29.4732C26.803 29.4732 27.5286 29.4732 28.2541 29.4732C28.3044 29.4814 28.3559 29.4776 28.4044 29.4619C28.4529 29.4463 28.4969 29.4194 28.533 29.3834C28.569 29.3473 28.5959 29.3033 28.6115 29.2548C28.6272 29.2063 28.631 29.1548 28.6228 29.1045V22.7056C29.0748 22.7056 29.4792 22.7056 29.8776 22.7056C29.9394 22.7175 30.003 22.7162 30.0642 22.7018C30.1255 22.6874 30.183 22.6602 30.2329 22.622C30.2829 22.5838 30.3243 22.5355 30.3543 22.4802C30.3842 22.4249 30.4022 22.3639 30.4069 22.3012C30.5199 21.76 30.6388 21.2188 30.7459 20.6717C30.7584 20.5411 30.7584 20.4097 30.7459 20.2792C28.4801 20.2197 26.2619 20.2197 24.0139 20.2792Z" fill="#FAFAFA"/>
<path d="M41.9798 26.9578C41.5461 26.9925 41.115 26.8643 40.7708 26.5981C40.4266 26.332 40.1939 25.9471 40.1184 25.5186C39.9473 24.8638 40.0391 24.168 40.3741 23.5799C40.5733 23.2248 40.8905 22.9507 41.2707 22.8051C41.651 22.6596 42.0701 22.6517 42.4555 22.783C43.9839 23.3301 44.1742 25.2986 43.3297 26.3214C43.183 26.5394 42.9801 26.7136 42.7424 26.8256C42.5048 26.9376 42.2413 26.9833 41.9798 26.9578Z" fill="#FAFAFA"/>
<path d="M20.5944 22.7472L20.8918 24.9298H20.1841C20.083 24.1686 20.422 23.4728 20.4101 22.7354L20.5944 22.7472Z" fill="#FAFAFA"/>
<path d="M29.503 12.5185C29.616 13.2321 29.7349 13.9458 29.8538 14.707H29.0867C29.0936 13.96 29.1834 13.216 29.3543 12.4888L29.503 12.5185Z" fill="#FAFAFA"/>
<path d="M44.638 12.5422C44.8164 13.238 44.8402 13.9576 44.9711 14.701H44.1801L44.5191 12.5541L44.638 12.5422Z" fill="#FAFAFA"/>
<path d="M21.6827 14.4749C21.6827 13.8802 21.6827 13.345 21.6827 12.7919C21.6827 12.566 21.8135 12.4708 22.0336 12.4589C22.1365 12.4508 22.2401 12.4635 22.3381 12.4961C22.4362 12.5287 22.5267 12.5807 22.6043 12.6489C22.6819 12.717 22.7451 12.8001 22.79 12.8931C22.835 12.9861 22.8609 13.0872 22.8661 13.1904C22.8661 13.3212 22.8661 13.458 22.8661 13.5888C22.8364 14.3203 22.5093 14.582 21.6827 14.4749Z" fill="#FAFAFA"/>
<path d="M36.8118 14.4868C36.8118 13.8921 36.8118 13.3271 36.8118 12.7562C36.817 12.7024 36.8341 12.6505 36.8619 12.6042C36.8896 12.5579 36.9274 12.5184 36.9724 12.4886C37.0749 12.4509 37.184 12.4348 37.293 12.4414C37.402 12.4479 37.5084 12.477 37.6056 12.5267C37.7028 12.5764 37.7887 12.6457 37.8578 12.7303C37.9269 12.8148 37.9778 12.9127 38.0072 13.0179C38.0548 13.2973 38.0548 13.5828 38.0072 13.8623C37.9299 14.344 37.5136 14.5581 36.8118 14.4868Z" fill="#FAFAFA"/>
<path d="M13.3034 15.0518L13.4818 13.9397H14.6415C14.582 14.2787 14.5285 14.582 14.4571 14.8853C14.4571 14.9507 14.3501 15.0458 14.2906 15.0458C13.9814 15.0637 13.6781 15.0518 13.3034 15.0518Z" fill="#FAFAFA"/>
</g>
<defs>
<clipPath id="clip0_32_46">
<rect width="59" height="59" fill="white"/>
</clipPath>
</defs>
</svg>
