<svg width="35" height="35" viewBox="0 0 35 35" fill="none" xmlns="http://www.w3.org/2000/svg">
<path d="M17.5 18.5567C19.9162 18.5567 21.875 16.6033 21.875 14.1938C21.875 11.7842 19.9162 9.83081 17.5 9.83081C15.0838 9.83081 13.125 11.7842 13.125 14.1938C13.125 16.6033 15.0838 18.5567 17.5 18.5567Z" stroke="#1F252B" stroke-width="2" stroke-linecap="round" stroke-linejoin="round"/>
<path d="M28.4375 14.1937C28.4375 24.0104 17.5 31.6455 17.5 31.6455C17.5 31.6455 6.5625 24.0104 6.5625 14.1937C6.5625 11.3009 7.71484 8.5266 9.76602 6.48107C11.8172 4.43554 14.5992 3.28638 17.5 3.28638C20.4008 3.28638 23.1828 4.43554 25.234 6.48107C27.2852 8.5266 28.4375 11.3009 28.4375 14.1937V14.1937Z" stroke="#1F252B" stroke-width="2" stroke-linecap="round" stroke-linejoin="round"/>
</svg>
