<svg width="35" height="36" viewBox="0 0 35 36" fill="none" xmlns="http://www.w3.org/2000/svg">
<path d="M12.6465 17.305C13.772 19.6229 15.6514 21.4923 17.9785 22.6087C18.1502 22.6898 18.34 22.7249 18.5294 22.7105C18.7188 22.6962 18.9012 22.6329 19.0586 22.5269L22.4766 20.25C22.6276 20.1479 22.8021 20.0856 22.9838 20.0689C23.1655 20.0522 23.3484 20.0817 23.5156 20.1546L29.9141 22.8951C30.1327 22.9858 30.3154 23.1458 30.434 23.3502C30.5526 23.5547 30.6005 23.7924 30.5703 24.0267C30.3675 25.6052 29.5949 27.0559 28.3971 28.1074C27.1993 29.1589 25.6583 29.7391 24.0625 29.7394C19.1311 29.7394 14.4017 27.7859 10.9147 24.3085C7.42773 20.8311 5.46875 16.1147 5.46875 11.1969C5.46911 9.60552 6.05092 8.06878 7.10531 6.87426C8.1597 5.67973 9.61442 4.90926 11.1973 4.70702C11.4322 4.67693 11.6705 4.72468 11.8756 4.84294C12.0806 4.96119 12.241 5.14339 12.332 5.36146L15.0801 11.7559C15.1515 11.92 15.1814 12.0991 15.1671 12.2774C15.1528 12.4557 15.0948 12.6278 14.998 12.7785L12.7148 16.2416C12.6132 16.3982 12.5535 16.5782 12.5416 16.7644C12.5296 16.9506 12.5657 17.1367 12.6465 17.305V17.305Z" stroke="#1F252B" stroke-width="2" stroke-linecap="round" stroke-linejoin="round"/>
</svg>
