<?xml version="1.0" standalone="no"?>
<!DOCTYPE svg PUBLIC "-//W3C//DTD SVG 20010904//EN"
 "http://www.w3.org/TR/2001/REC-SVG-20010904/DTD/svg10.dtd">
<svg version="1.0" xmlns="http://www.w3.org/2000/svg"
 width="700.000000pt" height="700.000000pt" viewBox="0 0 700.000000 700.000000"
 preserveAspectRatio="xMidYMid meet">
<metadata>
Created by potrace 1.14, written by Peter Selinger 2001-2017
</metadata>
<g transform="translate(0.000000,700.000000) scale(0.100000,-0.100000)"
fill="#000000" stroke="none">
<path d="M1466 5814 c-9 -8 -16 -21 -16 -27 0 -23 -20 -192 -25 -214 -5 -21
-11 -23 -63 -23 -32 0 -66 -6 -75 -12 -20 -15 -42 -126 -33 -163 6 -22 12 -24
69 -27 l62 -3 -2 -34 c0 -18 -4 -48 -8 -67 l-6 -34 -64 0 c-82 0 -95 -16 -98
-121 l-2 -74 62 -3 c40 -2 63 -8 66 -17 3 -7 -1 -55 -8 -107 -19 -122 -19
-154 1 -162 29 -11 150 -6 167 7 12 8 23 50 37 139 11 70 20 130 20 133 0 9
119 5 124 -4 3 -5 -1 -63 -10 -129 -9 -67 -14 -128 -11 -136 5 -13 23 -16 85
-16 47 0 85 5 94 13 11 8 22 48 33 122 25 170 17 155 94 155 36 0 71 4 78 8
16 10 29 48 38 110 10 73 0 82 -87 82 l-70 0 7 43 c16 106 7 97 95 97 92 0 97
4 106 98 10 90 -1 102 -88 102 -68 0 -70 1 -64 23 4 12 9 75 13 140 l6 117
-91 0 c-113 0 -114 -1 -136 -154 -9 -62 -21 -113 -28 -118 -7 -4 -31 -7 -53
-6 -37 3 -40 5 -43 34 -2 18 4 59 12 92 17 63 20 110 10 136 -9 23 -175 23
-198 0z m259 -520 c-11 -74 -10 -74 -82 -74 l-65 0 6 30 c3 17 9 44 12 60 6
30 6 30 71 30 l65 0 -7 -46z"/>
<path d="M2250 5813 c-8 -3 -18 -11 -22 -17 -4 -6 -8 -246 -8 -533 0 -506 1
-523 19 -533 26 -13 296 -13 322 0 17 10 19 22 19 125 0 111 1 115 23 120 12
3 75 16 140 29 130 27 164 44 226 111 50 54 73 106 91 199 45 242 -103 458
-340 496 -67 10 -444 13 -470 3z m431 -322 c26 -26 29 -36 29 -90 0 -80 -26
-114 -91 -115 l-44 -1 -3 97 c-2 57 2 106 8 118 16 31 65 26 101 -9z"/>
<path d="M3211 5798 c-5 -13 -21 -88 -36 -168 -15 -80 -51 -260 -80 -400 -65
-314 -90 -461 -82 -483 6 -15 26 -17 164 -17 87 0 164 4 171 9 18 11 42 106
42 171 0 79 3 81 101 78 l84 -3 18 -115 c10 -63 23 -120 29 -127 8 -10 55 -13
189 -13 l179 0 -10 26 c-10 25 -108 524 -170 859 -19 103 -38 177 -47 188 -15
15 -41 17 -280 17 l-263 0 -9 -22z m309 -414 c11 -65 20 -120 20 -121 0 -2
-21 -3 -46 -3 l-46 0 6 68 c12 118 28 194 38 184 5 -5 18 -63 28 -128z"/>
<path d="M4040 5810 c-13 -8 -15 -79 -18 -522 -1 -282 0 -523 3 -535 5 -23 7
-23 175 -23 l170 0 0 125 c0 69 1 125 3 125 1 0 55 7 121 15 143 17 205 43
270 116 72 80 91 140 91 289 0 115 -2 130 -27 182 -54 117 -157 192 -303 223
-80 17 -460 21 -485 5z m444 -321 c22 -25 26 -41 26 -89 0 -78 -25 -110 -93
-117 l-47 -6 0 106 c0 58 3 112 6 121 4 11 19 16 44 16 30 0 44 -6 64 -31z"/>
<path d="M5027 5807 c-13 -9 -29 -73 -62 -237 -122 -622 -155 -797 -155 -816
0 -30 22 -34 177 -34 174 0 179 2 188 82 4 34 14 80 21 102 8 22 12 48 8 58
-5 18 0 19 83 16 l88 -3 13 -75 c7 -41 17 -99 23 -127 l10 -53 163 0 c196 0
205 3 187 74 -6 26 -54 259 -107 519 -79 395 -98 475 -116 490 -18 15 -46 17
-262 17 -179 0 -247 -3 -259 -13z m281 -369 c7 -40 15 -97 18 -125 l7 -53 -46
0 c-33 0 -45 4 -42 13 2 6 11 63 21 125 9 61 20 112 24 112 4 0 12 -33 18 -72z"/>
<path d="M4895 4623 c-135 -21 -262 -80 -347 -160 -114 -109 -157 -210 -165
-391 l-6 -113 -30 37 c-17 20 -102 83 -189 141 -87 58 -163 114 -169 125 -31
58 36 64 130 12 l66 -36 78 83 c96 103 109 122 101 142 -10 26 -107 96 -175
125 -58 24 -76 27 -184 27 -111 0 -125 -2 -182 -29 -76 -35 -144 -104 -180
-182 -21 -47 -25 -67 -21 -127 6 -114 64 -207 165 -268 236 -140 268 -163 261
-195 -9 -48 -131 -37 -230 22 -33 19 -64 34 -68 32 -4 -2 -48 -50 -98 -108
l-90 -105 24 -25 c31 -33 119 -86 191 -115 114 -47 296 -51 412 -11 101 34
167 109 202 231 11 38 23 76 25 84 3 8 16 -9 30 -38 53 -106 196 -232 311
-273 43 -16 90 -22 180 -26 205 -8 330 32 435 139 72 74 120 147 156 237 23
59 26 81 27 187 0 136 -18 205 -80 311 -66 112 -205 212 -345 249 -60 16 -188
26 -235 18z m174 -343 c119 -60 164 -227 97 -358 -29 -56 -59 -86 -108 -107
-104 -43 -226 5 -281 109 -33 65 -31 183 6 258 56 115 174 155 286 98z"/>
<path d="M1163 4590 c-13 -5 -23 -11 -23 -13 0 -22 -98 -691 -107 -727 -3 -14
-28 134 -59 344 -29 202 -59 374 -65 382 -9 11 -48 14 -176 14 -139 0 -165 -2
-170 -16 -3 -8 4 -61 15 -117 117 -572 195 -933 204 -944 8 -10 58 -13 209
-13 195 0 199 0 213 23 8 12 33 114 55 226 23 112 42 206 44 207 2 2 22 -94
45 -213 24 -119 48 -223 54 -230 8 -11 55 -13 217 -11 l206 3 51 250 c29 138
79 369 113 514 34 145 61 274 61 288 0 16 -8 27 -26 33 -39 15 -309 13 -321
-2 -6 -7 -33 -168 -62 -358 -28 -190 -55 -358 -59 -375 -8 -30 -42 179 -91
564 -13 100 -24 148 -35 160 -13 13 -41 16 -144 18 -70 2 -137 -2 -149 -7z"/>
<path d="M2151 4563 c-5 -21 -24 -114 -41 -208 -17 -93 -60 -318 -96 -498 -36
-181 -63 -335 -60 -343 4 -11 37 -14 174 -14 l169 0 17 58 c9 32 16 74 16 93
0 19 5 51 10 71 10 34 14 37 56 44 41 6 111 1 121 -9 2 -2 12 -56 23 -118 14
-79 25 -118 37 -126 12 -9 65 -13 180 -13 136 0 163 2 163 15 0 23 -180 955
-205 1063 l-5 22 -275 0 -274 0 -10 -37z m293 -280 c2 -10 10 -61 16 -113 6
-52 14 -103 16 -112 5 -15 -1 -18 -34 -18 -28 0 -42 5 -46 16 -8 20 25 244 36
244 4 0 9 -8 12 -17z"/>
<path d="M2840 4558 c-6 -24 -17 -65 -24 -93 -40 -149 -36 -155 117 -162 l117
-6 0 -386 c0 -288 3 -390 12 -399 8 -8 58 -12 159 -12 121 0 150 3 163 16 14
13 16 64 16 399 l0 383 91 4 c72 2 93 7 104 21 16 22 59 241 52 262 -6 13 -55
15 -401 15 l-395 0 -11 -42z"/>
<path d="M5623 4589 c-16 -16 -19 -1022 -3 -1063 l10 -26 149 0 c82 0 156 3
165 6 14 5 16 32 16 193 0 102 4 191 8 198 5 7 49 -54 117 -164 61 -96 122
-188 137 -204 l26 -29 150 0 c124 0 153 3 166 16 14 14 16 77 16 550 l0 534
-164 0 c-119 0 -166 -3 -174 -12 -6 -7 -14 -98 -18 -201 -8 -226 2 -226 -142
8 -54 87 -110 168 -126 179 -24 19 -44 21 -174 24 -109 2 -150 0 -159 -9z"/>
<path d="M3201 2795 c-315 -69 -601 -262 -775 -523 -65 -98 -146 -256 -146
-286 0 -16 37 -29 120 -41 79 -12 254 -73 354 -124 118 -60 198 -117 330 -232
55 -49 113 -91 128 -94 17 -4 34 -18 43 -36 16 -30 80 -69 114 -69 21 0 61 44
61 66 0 7 -11 20 -23 29 -31 20 -44 50 -51 121 -4 32 -14 82 -23 110 -23 73
-7 339 25 400 19 38 21 63 28 367 l7 327 -64 -1 c-35 0 -93 -7 -128 -14z"/>
<path d="M3551 2796 c-9 -10 -7 -89 5 -316 14 -273 18 -310 39 -367 22 -57 25
-82 26 -221 1 -138 -2 -170 -25 -265 -14 -59 -32 -121 -41 -137 -20 -39 -19
-73 4 -94 31 -28 70 -12 136 54 56 56 62 60 106 60 l47 0 10 -57 c6 -32 9 -59
8 -59 0 -1 -40 -26 -87 -57 -48 -31 -89 -62 -92 -70 -10 -27 13 -111 38 -137
30 -31 30 -38 5 -70 -11 -14 -20 -37 -20 -51 0 -15 -7 -44 -16 -65 -11 -26
-15 -57 -12 -96 4 -52 9 -62 51 -107 44 -47 47 -53 41 -89 -5 -32 -2 -43 21
-70 31 -37 42 -89 27 -131 -10 -27 -8 -33 19 -55 23 -20 35 -23 56 -17 44 13
191 89 275 143 141 90 328 308 416 483 77 154 122 361 122 559 0 218 -31 346
-146 601 l-54 120 -143 138 c-136 133 -245 216 -352 270 -116 58 -328 117
-420 117 -18 0 -38 -6 -44 -14z"/>
<path d="M2232 1847 c-16 -19 -32 -172 -32 -303 0 -332 138 -655 379 -886 115
-111 200 -170 345 -239 134 -64 163 -69 202 -36 27 23 29 30 26 86 -2 48 3 71
20 104 13 23 25 64 28 92 4 43 10 53 37 70 47 29 67 76 60 142 -3 30 -13 65
-21 78 -8 12 -23 55 -32 95 -16 65 -16 73 -2 81 9 5 21 36 28 75 11 58 11 68
-2 75 -9 5 -39 27 -69 49 -29 22 -59 40 -65 40 -6 0 -29 26 -51 58 -136 193
-392 342 -708 412 -107 23 -129 24 -143 7z"/>
</g>
</svg>
